<mxfile host="app.diagrams.net" modified="2021-07-20T17:48:46.222Z" agent="5.0 (Windows NT 10.0; Win64; x64) AppleWebKit/537.36 (KHTML, like Gecko) Chrome/91.0.4472.164 Safari/537.36" etag="DDyGcbA1IehXwd970ruH" version="14.9.0" type="github">
  <diagram id="j_QuqbqXJgg7YyJkG3_l" name="Page-1">
    <mxGraphModel dx="868" dy="393" grid="1" gridSize="10" guides="1" tooltips="1" connect="1" arrows="1" fold="1" page="1" pageScale="1" pageWidth="850" pageHeight="1100" math="0" shadow="0">
      <root>
        <mxCell id="0" />
        <mxCell id="1" parent="0" />
        <mxCell id="3yQZq9DA6eusnD1RbKag-15" value="" style="edgeStyle=orthogonalEdgeStyle;rounded=0;orthogonalLoop=1;jettySize=auto;html=1;" parent="1" source="3yQZq9DA6eusnD1RbKag-1" target="3yQZq9DA6eusnD1RbKag-7" edge="1">
          <mxGeometry relative="1" as="geometry" />
        </mxCell>
        <mxCell id="3yQZq9DA6eusnD1RbKag-1" value="" style="shape=mxgraph.signs.tech.video_camera;html=1;pointerEvents=1;fillColor=#000000;strokeColor=none;verticalLabelPosition=bottom;verticalAlign=top;align=center;rotation=-180;" parent="1" vertex="1">
          <mxGeometry x="40" y="44" width="50" height="20" as="geometry" />
        </mxCell>
        <mxCell id="3yQZq9DA6eusnD1RbKag-16" value="" style="edgeStyle=orthogonalEdgeStyle;rounded=0;orthogonalLoop=1;jettySize=auto;html=1;" parent="1" source="3yQZq9DA6eusnD1RbKag-4" target="3yQZq9DA6eusnD1RbKag-7" edge="1">
          <mxGeometry relative="1" as="geometry" />
        </mxCell>
        <mxCell id="3yQZq9DA6eusnD1RbKag-4" value="" style="shape=mxgraph.signs.tech.video_camera;html=1;pointerEvents=1;fillColor=#000000;strokeColor=none;verticalLabelPosition=bottom;verticalAlign=top;align=center;rotation=-180;" parent="1" vertex="1">
          <mxGeometry x="40" y="76" width="50" height="20" as="geometry" />
        </mxCell>
        <mxCell id="3yQZq9DA6eusnD1RbKag-17" value="" style="edgeStyle=orthogonalEdgeStyle;rounded=0;orthogonalLoop=1;jettySize=auto;html=1;" parent="1" source="3yQZq9DA6eusnD1RbKag-5" target="3yQZq9DA6eusnD1RbKag-7" edge="1">
          <mxGeometry relative="1" as="geometry" />
        </mxCell>
        <mxCell id="3yQZq9DA6eusnD1RbKag-5" value="" style="shape=mxgraph.signs.tech.video_camera;html=1;pointerEvents=1;fillColor=#000000;strokeColor=none;verticalLabelPosition=bottom;verticalAlign=top;align=center;rotation=-180;" parent="1" vertex="1">
          <mxGeometry x="40" y="108" width="50" height="20" as="geometry" />
        </mxCell>
        <mxCell id="3yQZq9DA6eusnD1RbKag-18" value="" style="edgeStyle=orthogonalEdgeStyle;rounded=0;orthogonalLoop=1;jettySize=auto;html=1;" parent="1" source="3yQZq9DA6eusnD1RbKag-6" target="3yQZq9DA6eusnD1RbKag-7" edge="1">
          <mxGeometry relative="1" as="geometry" />
        </mxCell>
        <mxCell id="3yQZq9DA6eusnD1RbKag-6" value="" style="shape=mxgraph.signs.tech.video_camera;html=1;pointerEvents=1;fillColor=#000000;strokeColor=none;verticalLabelPosition=bottom;verticalAlign=top;align=center;rotation=-180;" parent="1" vertex="1">
          <mxGeometry x="40" y="140" width="50" height="20" as="geometry" />
        </mxCell>
        <mxCell id="3yQZq9DA6eusnD1RbKag-20" value="" style="edgeStyle=orthogonalEdgeStyle;rounded=0;orthogonalLoop=1;jettySize=auto;html=1;" parent="1" source="3yQZq9DA6eusnD1RbKag-7" target="3yQZq9DA6eusnD1RbKag-19" edge="1">
          <mxGeometry relative="1" as="geometry" />
        </mxCell>
        <mxCell id="3yQZq9DA6eusnD1RbKag-7" value="Synchronise using time stamps" style="rounded=0;whiteSpace=wrap;html=1;" parent="1" vertex="1">
          <mxGeometry x="140" y="40" width="100" height="120" as="geometry" />
        </mxCell>
        <mxCell id="3yQZq9DA6eusnD1RbKag-27" value="" style="edgeStyle=orthogonalEdgeStyle;rounded=0;orthogonalLoop=1;jettySize=auto;html=1;fontColor=#FFFFFF;" parent="1" source="3yQZq9DA6eusnD1RbKag-19" target="3yQZq9DA6eusnD1RbKag-26" edge="1">
          <mxGeometry relative="1" as="geometry" />
        </mxCell>
        <mxCell id="3yQZq9DA6eusnD1RbKag-19" value="Pre-processing&lt;br&gt;(resize to VGA resolution)" style="rounded=0;whiteSpace=wrap;html=1;" parent="1" vertex="1">
          <mxGeometry x="330" y="70" width="120" height="60" as="geometry" />
        </mxCell>
        <mxCell id="3yQZq9DA6eusnD1RbKag-21" value="C&lt;sub&gt;f&lt;/sub&gt;" style="text;html=1;strokeColor=none;fillColor=none;align=center;verticalAlign=middle;whiteSpace=wrap;rounded=0;fontColor=#FFFFFF;" parent="1" vertex="1">
          <mxGeometry x="50" y="44" width="40" height="20" as="geometry" />
        </mxCell>
        <mxCell id="3yQZq9DA6eusnD1RbKag-22" value="C&lt;span style=&quot;font-size: 10px&quot;&gt;r&lt;/span&gt;" style="text;html=1;strokeColor=none;fillColor=none;align=center;verticalAlign=middle;whiteSpace=wrap;rounded=0;fontColor=#FFFFFF;" parent="1" vertex="1">
          <mxGeometry x="50" y="76" width="40" height="20" as="geometry" />
        </mxCell>
        <mxCell id="3yQZq9DA6eusnD1RbKag-23" value="C&lt;sub&gt;b&lt;/sub&gt;" style="text;html=1;strokeColor=none;fillColor=none;align=center;verticalAlign=middle;whiteSpace=wrap;rounded=0;fontColor=#FFFFFF;" parent="1" vertex="1">
          <mxGeometry x="50" y="110" width="40" height="20" as="geometry" />
        </mxCell>
        <mxCell id="3yQZq9DA6eusnD1RbKag-24" value="C&lt;span style=&quot;font-size: 10px&quot;&gt;l&lt;/span&gt;" style="text;html=1;strokeColor=none;fillColor=none;align=center;verticalAlign=middle;whiteSpace=wrap;rounded=0;fontColor=#FFFFFF;" parent="1" vertex="1">
          <mxGeometry x="50" y="140" width="40" height="20" as="geometry" />
        </mxCell>
        <mxCell id="3yQZq9DA6eusnD1RbKag-25" value="&lt;font color=&quot;#000000&quot; style=&quot;font-size: 10px&quot; face=&quot;Tahoma&quot;&gt;I:C&lt;sub&gt;f&lt;/sub&gt;,C&lt;sub&gt;r&lt;/sub&gt;,C&lt;sub&gt;b&lt;/sub&gt;,C&lt;sub&gt;l &lt;/sub&gt;@ &lt;i&gt;t&lt;/i&gt;&lt;/font&gt;" style="text;html=1;strokeColor=none;fillColor=none;align=center;verticalAlign=middle;whiteSpace=wrap;rounded=0;fontColor=#FFFFFF;" parent="1" vertex="1">
          <mxGeometry x="223" y="98" width="120" height="20" as="geometry" />
        </mxCell>
        <mxCell id="J0JIrXzKxg_w0Izk8Y8--6" style="edgeStyle=orthogonalEdgeStyle;rounded=0;orthogonalLoop=1;jettySize=auto;html=1;exitX=1;exitY=0.5;exitDx=0;exitDy=0;entryX=0.5;entryY=0;entryDx=0;entryDy=0;" edge="1" parent="1" source="3yQZq9DA6eusnD1RbKag-26" target="J0JIrXzKxg_w0Izk8Y8--5">
          <mxGeometry relative="1" as="geometry" />
        </mxCell>
        <mxCell id="3yQZq9DA6eusnD1RbKag-26" value="" style="whiteSpace=wrap;html=1;rounded=0;" parent="1" vertex="1">
          <mxGeometry x="560" y="70" width="120" height="60" as="geometry" />
        </mxCell>
        <mxCell id="3yQZq9DA6eusnD1RbKag-28" value="&lt;font color=&quot;#000000&quot; style=&quot;font-size: 10px&quot; face=&quot;Tahoma&quot;&gt;Ir:C&lt;sub&gt;f&lt;/sub&gt;,C&lt;sub&gt;r&lt;/sub&gt;,C&lt;sub&gt;b&lt;/sub&gt;,C&lt;sub&gt;l &lt;/sub&gt;@ &lt;i&gt;t&lt;/i&gt;&lt;/font&gt;" style="text;html=1;strokeColor=none;fillColor=none;align=center;verticalAlign=middle;whiteSpace=wrap;rounded=0;fontColor=#FFFFFF;" parent="1" vertex="1">
          <mxGeometry x="450" y="100" width="120" height="20" as="geometry" />
        </mxCell>
        <mxCell id="3yQZq9DA6eusnD1RbKag-31" style="edgeStyle=orthogonalEdgeStyle;rounded=0;orthogonalLoop=1;jettySize=auto;html=1;exitX=0.5;exitY=1;exitDx=0;exitDy=0;entryX=0;entryY=0.25;entryDx=0;entryDy=0;fontColor=#FFFFFF;" parent="1" source="3yQZq9DA6eusnD1RbKag-29" target="3yQZq9DA6eusnD1RbKag-26" edge="1">
          <mxGeometry relative="1" as="geometry" />
        </mxCell>
        <mxCell id="3yQZq9DA6eusnD1RbKag-29" value="&lt;font color=&quot;#000000&quot; style=&quot;font-size: 11px&quot;&gt;Intrinsic Camera Parameters&lt;/font&gt;" style="rounded=1;whiteSpace=wrap;html=1;fontColor=#FFFFFF;" parent="1" vertex="1">
          <mxGeometry x="470" y="20" width="90" height="36" as="geometry" />
        </mxCell>
        <mxCell id="3yQZq9DA6eusnD1RbKag-32" value="&lt;font color=&quot;#000000&quot;&gt;K&lt;/font&gt;" style="text;html=1;strokeColor=none;fillColor=none;align=center;verticalAlign=middle;whiteSpace=wrap;rounded=0;fontColor=#FFFFFF;" parent="1" vertex="1">
          <mxGeometry x="510" y="64" width="40" height="20" as="geometry" />
        </mxCell>
        <mxCell id="J0JIrXzKxg_w0Izk8Y8--1" value="&lt;font style=&quot;font-size: 12px&quot;&gt;Feature Computation and Point Correspondences&lt;/font&gt;" style="text;html=1;strokeColor=none;fillColor=none;align=center;verticalAlign=middle;whiteSpace=wrap;rounded=0;" vertex="1" parent="1">
          <mxGeometry x="565" y="88" width="110" height="20" as="geometry" />
        </mxCell>
        <mxCell id="J0JIrXzKxg_w0Izk8Y8--3" value="&lt;font color=&quot;#000000&quot; style=&quot;font-size: 10px&quot; face=&quot;Tahoma&quot;&gt;Ir:C&lt;sub&gt;f&lt;/sub&gt;,C&lt;sub&gt;r&lt;/sub&gt;,C&lt;sub&gt;b&lt;/sub&gt;,C&lt;sub&gt;l &lt;/sub&gt;@ &lt;i&gt;t, t+1&lt;/i&gt;&lt;/font&gt;" style="text;html=1;strokeColor=none;fillColor=none;align=center;verticalAlign=middle;whiteSpace=wrap;rounded=0;fontColor=#FFFFFF;" vertex="1" parent="1">
          <mxGeometry x="555" y="130" width="120" height="20" as="geometry" />
        </mxCell>
        <mxCell id="J0JIrXzKxg_w0Izk8Y8--4" value="Offline" style="text;html=1;strokeColor=none;fillColor=none;align=center;verticalAlign=middle;whiteSpace=wrap;rounded=0;" vertex="1" parent="1">
          <mxGeometry x="425" y="28" width="40" height="20" as="geometry" />
        </mxCell>
        <mxCell id="J0JIrXzKxg_w0Izk8Y8--9" style="edgeStyle=orthogonalEdgeStyle;rounded=0;orthogonalLoop=1;jettySize=auto;html=1;entryX=1;entryY=0.5;entryDx=0;entryDy=0;" edge="1" parent="1" source="J0JIrXzKxg_w0Izk8Y8--5" target="J0JIrXzKxg_w0Izk8Y8--7">
          <mxGeometry relative="1" as="geometry" />
        </mxCell>
        <mxCell id="J0JIrXzKxg_w0Izk8Y8--5" value="Camera Pose Estimation" style="rounded=0;whiteSpace=wrap;html=1;fillColor=#dae8fc;strokeColor=#6c8ebf;" vertex="1" parent="1">
          <mxGeometry x="680" y="190" width="120" height="60" as="geometry" />
        </mxCell>
        <mxCell id="J0JIrXzKxg_w0Izk8Y8--11" value="" style="edgeStyle=orthogonalEdgeStyle;rounded=0;orthogonalLoop=1;jettySize=auto;html=1;" edge="1" parent="1" source="J0JIrXzKxg_w0Izk8Y8--7" target="J0JIrXzKxg_w0Izk8Y8--10">
          <mxGeometry relative="1" as="geometry" />
        </mxCell>
        <mxCell id="J0JIrXzKxg_w0Izk8Y8--7" value="" style="rounded=0;whiteSpace=wrap;html=1;fillColor=#dae8fc;strokeColor=#6c8ebf;" vertex="1" parent="1">
          <mxGeometry x="360" y="190" width="120" height="60" as="geometry" />
        </mxCell>
        <mxCell id="J0JIrXzKxg_w0Izk8Y8--8" value="Point Triangulation" style="text;html=1;strokeColor=none;fillColor=none;align=center;verticalAlign=middle;whiteSpace=wrap;rounded=0;" vertex="1" parent="1">
          <mxGeometry x="405" y="210" width="40" height="20" as="geometry" />
        </mxCell>
        <mxCell id="J0JIrXzKxg_w0Izk8Y8--13" value="" style="edgeStyle=orthogonalEdgeStyle;rounded=0;orthogonalLoop=1;jettySize=auto;html=1;" edge="1" parent="1" source="J0JIrXzKxg_w0Izk8Y8--10" target="J0JIrXzKxg_w0Izk8Y8--12">
          <mxGeometry relative="1" as="geometry" />
        </mxCell>
        <mxCell id="J0JIrXzKxg_w0Izk8Y8--10" value="Local Bundle Adjustment" style="rounded=0;whiteSpace=wrap;html=1;fillColor=#dae8fc;strokeColor=#6c8ebf;" vertex="1" parent="1">
          <mxGeometry x="70" y="190" width="120" height="60" as="geometry" />
        </mxCell>
        <mxCell id="J0JIrXzKxg_w0Izk8Y8--15" value="" style="edgeStyle=orthogonalEdgeStyle;rounded=0;orthogonalLoop=1;jettySize=auto;html=1;" edge="1" parent="1" source="J0JIrXzKxg_w0Izk8Y8--12" target="J0JIrXzKxg_w0Izk8Y8--14">
          <mxGeometry relative="1" as="geometry" />
        </mxCell>
        <mxCell id="J0JIrXzKxg_w0Izk8Y8--12" value="Inter Camera Correspondence" style="whiteSpace=wrap;html=1;rounded=0;fillColor=#fff2cc;strokeColor=#d6b656;" vertex="1" parent="1">
          <mxGeometry x="70" y="320" width="120" height="60" as="geometry" />
        </mxCell>
        <mxCell id="J0JIrXzKxg_w0Izk8Y8--17" value="" style="edgeStyle=orthogonalEdgeStyle;rounded=0;orthogonalLoop=1;jettySize=auto;html=1;" edge="1" parent="1" source="J0JIrXzKxg_w0Izk8Y8--14" target="J0JIrXzKxg_w0Izk8Y8--16">
          <mxGeometry relative="1" as="geometry" />
        </mxCell>
        <mxCell id="J0JIrXzKxg_w0Izk8Y8--14" value="Global Bundle Adjustment" style="whiteSpace=wrap;html=1;rounded=0;fillColor=#fff2cc;strokeColor=#d6b656;" vertex="1" parent="1">
          <mxGeometry x="360" y="320" width="120" height="60" as="geometry" />
        </mxCell>
        <mxCell id="J0JIrXzKxg_w0Izk8Y8--16" value="3D Point Cloud" style="whiteSpace=wrap;html=1;rounded=0;fillColor=#fff2cc;strokeColor=#d6b656;" vertex="1" parent="1">
          <mxGeometry x="680" y="320" width="120" height="60" as="geometry" />
        </mxCell>
        <mxCell id="J0JIrXzKxg_w0Izk8Y8--18" style="edgeStyle=orthogonalEdgeStyle;rounded=0;orthogonalLoop=1;jettySize=auto;html=1;entryX=0.5;entryY=0;entryDx=0;entryDy=0;" edge="1" parent="1" target="J0JIrXzKxg_w0Izk8Y8--14">
          <mxGeometry relative="1" as="geometry">
            <mxPoint x="682" y="230" as="sourcePoint" />
            <mxPoint x="420" y="310" as="targetPoint" />
            <Array as="points">
              <mxPoint x="670" y="230" />
              <mxPoint x="670" y="260" />
              <mxPoint x="420" y="260" />
            </Array>
          </mxGeometry>
        </mxCell>
        <mxCell id="J0JIrXzKxg_w0Izk8Y8--19" value="" style="shape=curlyBracket;whiteSpace=wrap;html=1;rounded=1;rotation=90;" vertex="1" parent="1">
          <mxGeometry x="434" y="-86" width="20" height="528" as="geometry" />
        </mxCell>
        <mxCell id="J0JIrXzKxg_w0Izk8Y8--20" value="" style="shape=curlyBracket;whiteSpace=wrap;html=1;rounded=1;rotation=-90;" vertex="1" parent="1">
          <mxGeometry x="434" y="127" width="20" height="528" as="geometry" />
        </mxCell>
        <mxCell id="J0JIrXzKxg_w0Izk8Y8--21" value="Single-camera SfM" style="text;html=1;strokeColor=none;fillColor=none;align=center;verticalAlign=middle;whiteSpace=wrap;rounded=0;" vertex="1" parent="1">
          <mxGeometry x="392.5" y="150" width="117.5" height="20" as="geometry" />
        </mxCell>
        <mxCell id="J0JIrXzKxg_w0Izk8Y8--22" value="Multi-camera SfM" style="text;html=1;strokeColor=none;fillColor=none;align=center;verticalAlign=middle;whiteSpace=wrap;rounded=0;" vertex="1" parent="1">
          <mxGeometry x="391.5" y="400" width="105" height="20" as="geometry" />
        </mxCell>
      </root>
    </mxGraphModel>
  </diagram>
</mxfile>
